<svg width="28" height="28" viewBox="0 0 28 28" fill="none" xmlns="http://www.w3.org/2000/svg">
<path d="M6.99935 24.4987C6.35768 24.4987 5.80857 24.2704 5.35202 23.8139C4.89468 23.3565 4.66602 22.807 4.66602 22.1654V11.6654C4.66602 11.2959 4.74885 10.9459 4.91452 10.6154C5.0794 10.2848 5.30768 10.0126 5.59935 9.7987L12.5993 4.5487C12.8132 4.39314 13.0368 4.27648 13.2702 4.1987C13.5035 4.12092 13.7466 4.08203 13.9993 4.08203C14.2521 4.08203 14.4952 4.12092 14.7285 4.1987C14.9618 4.27648 15.1855 4.39314 15.3993 4.5487L22.3993 9.7987C22.691 10.0126 22.9197 10.2848 23.0853 10.6154C23.2502 10.9459 23.3327 11.2959 23.3327 11.6654V22.1654C23.3327 22.807 23.1044 23.3565 22.6478 23.8139C22.1905 24.2704 21.641 24.4987 20.9993 24.4987H16.3327V16.332H11.666V24.4987H6.99935Z" fill="#D9D9D9"/>
</svg>
