<svg width="28" height="28" viewBox="0 0 28 28" fill="none" xmlns="http://www.w3.org/2000/svg">
<path d="M5.83333 12.832H15.1667V15.1654H5.83333V18.6654L0 13.9987L5.83333 9.33203V12.832ZM4.66667 20.9987H7.826C9.17313 22.1868 10.8345 22.9609 12.6106 23.2281C14.3868 23.4954 16.2024 23.2445 17.8395 22.5055C19.4766 21.7664 20.8657 20.5707 21.8401 19.0618C22.8145 17.5529 23.3328 15.7949 23.3328 13.9987C23.3328 12.2025 22.8145 10.4445 21.8401 8.93558C20.8657 7.42667 19.4766 6.23096 17.8395 5.49195C16.2024 4.75293 14.3868 4.502 12.6106 4.76927C10.8345 5.03653 9.17313 5.81064 7.826 6.9987H4.66667C5.75244 5.54874 7.16139 4.37196 8.78158 3.56187C10.4018 2.75177 12.1886 2.33067 14 2.33203C20.4435 2.33203 25.6667 7.5552 25.6667 13.9987C25.6667 20.4422 20.4435 25.6654 14 25.6654C12.1886 25.6667 10.4018 25.2456 8.78158 24.4355C7.16139 23.6254 5.75244 22.4487 4.66667 20.9987Z" fill="#D9D9D9"/>
</svg>
