<svg width="25" height="22" viewBox="0 0 25 22" fill="none" xmlns="http://www.w3.org/2000/svg">
<path d="M13.1673 18.168C13.1673 17.7713 13.214 17.3863 13.2723 17.0013H2.66732V5.33464L12.0007 11.168L21.334 5.33464V11.273C22.174 11.413 22.9557 11.7046 23.6673 12.113V3.0013C23.6673 1.71797 22.6173 0.667969 21.334 0.667969H2.66732C1.38398 0.667969 0.333984 1.71797 0.333984 3.0013V17.0013C0.333984 18.2846 1.38398 19.3346 2.66732 19.3346H13.2723C13.214 18.9496 13.1673 18.5646 13.1673 18.168ZM21.334 3.0013L12.0007 8.83463L2.66732 3.0013H21.334ZM18.709 21.8546L15.5007 18.3546L16.854 17.0013L18.709 18.8563L22.8973 14.668L24.2507 16.313L18.709 21.8546Z" fill="#333333"/>
</svg>
