<svg width="28" height="28" viewBox="0 0 28 28" fill="none" xmlns="http://www.w3.org/2000/svg">
<path d="M22.2259 5.7271C21.1563 4.64668 19.8823 3.79005 18.4782 3.20716C17.074 2.62427 15.5679 2.3268 14.0476 2.3321C7.67758 2.3321 2.48591 7.52377 2.48591 13.8938C2.48591 15.9354 3.02258 17.9188 4.02591 19.6688L2.39258 25.6654L8.51758 24.0554C10.2092 24.9771 12.1109 25.4671 14.0476 25.4671C20.4176 25.4671 25.6092 20.2754 25.6092 13.9054C25.6092 10.8138 24.4076 7.90877 22.2259 5.7271ZM14.0476 23.5071C12.3209 23.5071 10.6292 23.0404 9.14758 22.1654L8.79758 21.9554L5.15758 22.9121L6.12591 19.3654L5.89258 19.0038C4.93328 17.4719 4.42391 15.7012 4.42258 13.8938C4.42258 8.5971 8.73924 4.28043 14.0359 4.28043C16.6026 4.28043 19.0176 5.28377 20.8259 7.10377C21.7213 7.99506 22.4309 9.05521 22.9135 10.2228C23.3962 11.3903 23.6423 12.6421 23.6376 13.9054C23.6609 19.2021 19.3442 23.5071 14.0476 23.5071ZM19.3209 16.3204C19.0292 16.1804 17.6059 15.4804 17.3492 15.3754C17.0809 15.2821 16.8942 15.2354 16.6959 15.5154C16.4976 15.8071 15.9492 16.4604 15.7859 16.6471C15.6226 16.8454 15.4476 16.8688 15.1559 16.7171C14.8642 16.5771 13.9309 16.2621 12.8342 15.2821C11.9709 14.5121 11.3992 13.5671 11.2242 13.2754C11.0609 12.9838 11.2009 12.8321 11.3526 12.6804C11.4809 12.5521 11.6442 12.3421 11.7842 12.1788C11.9242 12.0154 11.9826 11.8871 12.0759 11.7004C12.1692 11.5021 12.1226 11.3388 12.0526 11.1988C11.9826 11.0588 11.3992 9.63543 11.1659 9.0521C10.9326 8.4921 10.6876 8.5621 10.5126 8.55043H9.95258C9.75424 8.55043 9.45091 8.62043 9.18258 8.9121C8.92591 9.20377 8.17924 9.90377 8.17924 11.3271C8.17924 12.7504 9.21758 14.1271 9.35758 14.3138C9.49758 14.5121 11.3992 17.4288 14.2926 18.6771C14.9809 18.9804 15.5176 19.1554 15.9376 19.2838C16.6259 19.5054 17.2559 19.4704 17.7576 19.4004C18.3176 19.3188 19.4726 18.7004 19.7059 18.0238C19.9509 17.3471 19.9509 16.7754 19.8692 16.6471C19.7876 16.5188 19.6126 16.4604 19.3209 16.3204Z" fill="#D9D9D9"/>
</svg>
